<svg xmlns="http://www.w3.org/2000/svg" viewBox="0 0 64 64" fill="none">
  <style>
    .cat { fill: #000000; }
    .cat-stroke { stroke: #000000; }
    .card { fill: #ffffff; }
    @media (prefers-color-scheme: dark) {
      .cat { fill: #ffffff; }
      .cat-stroke { stroke: #ffffff; }
      .card { fill: #000000; }
    }
  </style>
  <g transform="translate(2 2) scale(0.9375)"><path d="M47 52.5 C 58.5 51.5 60 41 55 35.5" fill="none" class="cat-stroke" stroke-width="4.4" stroke-linecap="round" stroke-linejoin="round" /><path d="M23.5 15 L23.5 4 L33 12 Z" class="cat" /><path d="M40.5 15 L40.5 4 L31 12 Z" class="cat" /><circle cx="32" cy="22" r="11.5" class="cat" /><rect x="14" y="26" width="36" height="30" rx="12" class="cat" /><ellipse cx="23" cy="57.5" rx="5.2" ry="3" class="cat" /><ellipse cx="41" cy="57.5" rx="5.2" ry="3" class="cat" /><g transform="rotate(-4 32 42)"><rect x="19" y="30" width="26" height="24" rx="3" class="card cat-stroke" stroke-width="2.4" /><circle cx="26.5" cy="39.5" r="4" class="card cat-stroke" stroke-width="2.3" /><circle cx="37.5" cy="39.5" r="4" class="card cat-stroke" stroke-width="2.3" /><circle cx="26.5" cy="39.5" r="1.4" class="cat" /><circle cx="37.5" cy="39.5" r="1.4" class="cat" /><circle cx="32" cy="47.5" r="1.7" class="card cat-stroke" stroke-width="1.6" /></g><circle cx="18.2" cy="44" r="3.9" class="cat" /><circle cx="45.8" cy="44" r="3.9" class="cat" /></g>
</svg>
